# xmcd
#
# Track frame offsets:
#	150
#	12165
#	32557
#	49465
#	65370
#	85047
#	101720
#	123612
#	140120
#	163027
#	183812
#	200950
#	217320
#	233932
#	249095
#	262157
#	277015
#	295385
#	308332
#
# Disc length: 4416 seconds
#
# Revision: 0
# Processed by: cddbd v1.5.2PL0 Copyright (c) Steve Scherf et al.
# Submitted via: EasyCDDAExtractor 11.1.0.1
#
DISCID=25113e13
DTITLE=Mary Chapin Carpenter - Song Of
DYEAR=1997
DGENRE=Country
TTITLE0=Why Walk When You Can Fly
TTITLE1=Stones In The Road
TTITLE2=I Take My Chances
TTITLE3=I Feel Lucky
TTITLE4=The Hard Way
TTITLE5=He Thinks He'll Keep Her
TTITLE6=Come On Come On
TTITLE7=Where Time Stands Still
TTITLE8=I Am A Town
TTITLE9=What You Didn't Say
TTITLE10=This Shirt
TTITLE11=What If We Went To Italy
TTITLE12=Shut Up And Kiss Me
TTITLE13=Down At The Twist And Shout
TTITLE14=Tender When I Want To Be
TTITLE15=The Better To Dream Of You
TTITLE16=A Place In The World
TTITLE17=Le Me Into Your Heart
TTITLE18=Sudden Gift Of Fate
EXTD=
EXTT0=
EXTT1=
EXTT2=
EXTT3=
EXTT4=
EXTT5=
EXTT6=
EXTT7=
EXTT8=
EXTT9=
EXTT10=
EXTT11=
EXTT12=
EXTT13=
EXTT14=
EXTT15=
EXTT16=
EXTT17=
EXTT18=
PLAYORDER=
